<?xml version="1.0" encoding="UTF-8"?>
<svg width="1920px" height="1080px" viewBox="0 0 1920 1080" version="1.1" xmlns="http://www.w3.org/2000/svg" xmlns:xlink="http://www.w3.org/1999/xlink">
    <title>vintages-kit</title>
    <defs>
        <polygon id="path-1" points="16.5 0 33 11.6666667 29.7 11.6666667 29.7 25 21.45 25 21.45 16.6666667 11.55 16.6666667 11.55 25 3.3 25 3.3 11.6666667 0 11.6666667"></polygon>
        <filter x="-3.0%" y="-4.0%" width="106.1%" height="108.0%" filterUnits="objectBoundingBox" id="filter-2">
            <feGaussianBlur stdDeviation="0.5" in="SourceAlpha" result="shadowBlurInner1"></feGaussianBlur>
            <feOffset dx="1" dy="1" in="shadowBlurInner1" result="shadowOffsetInner1"></feOffset>
            <feComposite in="shadowOffsetInner1" in2="SourceAlpha" operator="arithmetic" k2="-1" k3="1" result="shadowInnerInner1"></feComposite>
            <feColorMatrix values="0 0 0 0 0   0 0 0 0 0   0 0 0 0 0  0 0 0 0.05 0" type="matrix" in="shadowInnerInner1"></feColorMatrix>
        </filter>
        <filter color-interpolation-filters="auto" id="filter-3">
            <feColorMatrix in="SourceGraphic" type="matrix" values="0 0 0 0 0.968627 0 0 0 0 0.576471 0 0 0 0 0.117647 0 0 0 1.000000 0"></feColorMatrix>
        </filter>
        <filter color-interpolation-filters="auto" id="filter-4">
            <feColorMatrix in="SourceGraphic" type="matrix" values="0 0 0 0 0.968627 0 0 0 0 0.576471 0 0 0 0 0.117647 0 0 0 1.000000 0"></feColorMatrix>
        </filter>
        <filter color-interpolation-filters="auto" id="filter-5">
            <feColorMatrix in="SourceGraphic" type="matrix" values="0 0 0 0 0.968627 0 0 0 0 0.576471 0 0 0 0 0.117647 0 0 0 1.000000 0"></feColorMatrix>
        </filter>
        <filter color-interpolation-filters="auto" id="filter-6">
            <feColorMatrix in="SourceGraphic" type="matrix" values="0 0 0 0 0.968627 0 0 0 0 0.576471 0 0 0 0 0.117647 0 0 0 1.000000 0"></feColorMatrix>
        </filter>
        <filter color-interpolation-filters="auto" id="filter-7">
            <feColorMatrix in="SourceGraphic" type="matrix" values="0 0 0 0 0.968627 0 0 0 0 0.576471 0 0 0 0 0.117647 0 0 0 1.000000 0"></feColorMatrix>
        </filter>
        <filter color-interpolation-filters="auto" id="filter-8">
            <feColorMatrix in="SourceGraphic" type="matrix" values="0 0 0 0 0.968627 0 0 0 0 0.576471 0 0 0 0 0.117647 0 0 0 1.000000 0"></feColorMatrix>
        </filter>
        <filter color-interpolation-filters="auto" id="filter-9">
            <feColorMatrix in="SourceGraphic" type="matrix" values="0 0 0 0 0.968627 0 0 0 0 0.576471 0 0 0 0 0.117647 0 0 0 1.000000 0"></feColorMatrix>
        </filter>
        <filter color-interpolation-filters="auto" id="filter-10">
            <feColorMatrix in="SourceGraphic" type="matrix" values="0 0 0 0 0.968627 0 0 0 0 0.576471 0 0 0 0 0.117647 0 0 0 1.000000 0"></feColorMatrix>
        </filter>
        <filter color-interpolation-filters="auto" id="filter-11">
            <feColorMatrix in="SourceGraphic" type="matrix" values="0 0 0 0 0.968627 0 0 0 0 0.576471 0 0 0 0 0.117647 0 0 0 1.000000 0"></feColorMatrix>
        </filter>
    </defs>
    <g id="vintages-kit" stroke="none" stroke-width="1" fill="none" fill-rule="evenodd">
        <rect fill="#FFFFFF" x="0" y="0" width="1920" height="1080"></rect>
        <g id="trees-icon-label" transform="translate(442.000000, 166.500000)">
            <path d="M146.96,52.0642857 L146.96,41.6642857 L151.24,41.6642857 C157,41.6642857 160.96,39.1042857 160.96,33.5442857 C160.96,27.7842857 156.96,25.8242857 151.08,25.8242857 L143.6,25.8242857 L143.6,52.0642857 L146.96,52.0642857 Z M150.84,38.9442857 L146.96,38.9442857 L146.96,28.5442857 L150.68,28.5442857 C155.28,28.5442857 157.6,29.7842857 157.6,33.5442857 C157.6,37.2642857 155.4,38.9442857 150.84,38.9442857 Z M170.44,52.5442857 C172.88,52.5442857 175,51.3042857 176.84,49.7442857 L176.96,49.7442857 L177.28,52.0642857 L180,52.0642857 L180,40.1042857 C180,35.3042857 177.96,32.1442857 173.24,32.1442857 C170.12,32.1442857 167.4,33.4642857 165.6,34.6642857 L166.88,36.9042857 C168.4,35.9042857 170.44,34.9042857 172.68,34.9042857 C175.84,34.9042857 176.64,37.2642857 176.68,39.7042857 C168.36,40.6242857 164.76,42.7042857 164.76,47.0242857 C164.76,50.5442857 167.2,52.5442857 170.44,52.5442857 Z M171.36,49.8242857 C169.48,49.8242857 168,48.9842857 168,46.8242857 C168,44.3042857 170.12,42.8242857 176.68,42.0642857 L176.68,47.3442857 C174.8,48.9842857 173.24,49.8242857 171.36,49.8242857 Z M194.16,52.5442857 C198.92,52.5442857 202.72,48.6242857 202.72,42.4242857 C202.72,36.7442857 199.52,33.3442857 194.92,33.3442857 C192.48,33.3442857 190.08,34.4642857 188.36,36.5842857 C188.96,28.5842857 191.64,28.0642857 197.88,27.1442857 C199.52,26.9042857 200.88,26.5442857 201.92,25.8642857 L201.24,22.8642857 C200.04,23.4242857 199.36,23.6242857 197.2,23.9442857 C189.8,25.0642857 185,27.1442857 185,40.2642857 C185,48.1042857 188.36,52.5442857 194.16,52.5442857 Z M194.16,49.7842857 C190.2,49.7842857 188.2,46.5042857 188.2,40.9042857 L188.2,39.3842857 L188.2,39.3842857 C190.16,36.7442857 192.2,35.9042857 194.08,35.9042857 C197.44,35.9042857 199.28,38.4242857 199.28,42.4242857 C199.28,46.8242857 197.16,49.7842857 194.16,49.7842857 Z M215.48,52.5442857 C220.24,52.5442857 224.52,48.8242857 224.52,42.3842857 C224.52,35.8642857 220.24,32.1442857 215.48,32.1442857 C210.72,32.1442857 206.48,35.8642857 206.48,42.3842857 C206.48,48.8242857 210.72,52.5442857 215.48,52.5442857 Z M215.48,49.7842857 C212.16,49.7842857 209.92,46.8242857 209.92,42.3842857 C209.92,37.9042857 212.16,34.9042857 215.48,34.9042857 C218.84,34.9042857 221.08,37.9042857 221.08,42.3842857 C221.08,46.8242857 218.84,49.7842857 215.48,49.7842857 Z M243.56,52.0642857 L243.56,32.6242857 L240.24,32.6242857 L240.24,41.6642857 C239.12,41.9042857 238.24,42.0242857 237.08,42.0242857 C233.56,42.0242857 232,40.8242857 232,37.9442857 L232,32.6242857 L228.68,32.6242857 L228.68,37.9442857 C228.68,42.7842857 231.52,44.7442857 236.44,44.7442857 C238.16,44.7442857 238.88,44.5842857 240.24,44.3442857 L240.24,52.0642857 L243.56,52.0642857 Z M253.68,52.0642857 L260.6,41.1042857 C261.36,39.9042857 262.36,38.1442857 263.12,36.6642857 L263.28,36.6642857 C263.08,39.4642857 262.96,41.8642857 262.96,43.9442857 L262.96,52.0642857 L266.12,52.0642857 L266.12,32.6242857 L262.6,32.6242857 L255.64,43.6242857 C254.88,44.8242857 253.88,46.6242857 253.12,48.0242857 L252.96,48.0242857 C253.16,45.2642857 253.32,42.8242857 253.32,40.7442857 L253.32,32.6242857 L250.12,32.6242857 L250.12,52.0642857 L253.68,52.0642857 Z M280.8,29.1442857 C285.28,29.1442857 286.92,26.1442857 287.08,23.0242857 L284.36,23.0242857 C284.28,25.3042857 283.44,27.1842857 280.8,27.1842857 C278.16,27.1842857 277.32,25.3042857 277.24,23.0242857 L274.52,23.0242857 C274.68,26.1442857 276.32,29.1442857 280.8,29.1442857 Z M276.24,52.0642857 L283.16,41.1042857 C283.92,39.9042857 284.92,38.1442857 285.68,36.6642857 L285.84,36.6642857 C285.64,39.4642857 285.52,41.8642857 285.52,43.9442857 L285.52,52.0642857 L288.68,52.0642857 L288.68,32.6242857 L285.16,32.6242857 L278.2,43.6242857 C277.44,44.8242857 276.44,46.6242857 275.68,48.0242857 L275.52,48.0242857 C275.72,45.2642857 275.88,42.8242857 275.88,40.7442857 L275.88,32.6242857 L272.68,32.6242857 L272.68,52.0642857 L276.24,52.0642857 Z M306.56,52.0642857 L306.56,43.3042857 L310.76,43.3042857 L315.84,52.0642857 L319.44,52.0642857 L313.2,41.8242857 L314.84,38.0242857 C315.84,35.7842857 316.64,35.4642857 317.64,35.4642857 C317.92,35.4642857 318.04,35.5042857 318.28,35.5842857 L318.88,32.4642857 C318.56,32.3042857 318.16,32.2242857 317.72,32.2242857 C315.6,32.2242857 314.12,32.8642857 312.56,36.3042857 L310.64,40.6242857 L306.56,40.6242857 L306.56,32.6242857 L303.28,32.6242857 L303.28,52.0642857 L306.56,52.0642857 Z M327.56,52.5442857 C330,52.5442857 332.12,51.3042857 333.96,49.7442857 L334.08,49.7442857 L334.4,52.0642857 L337.12,52.0642857 L337.12,40.1042857 C337.12,35.3042857 335.08,32.1442857 330.36,32.1442857 C327.24,32.1442857 324.52,33.4642857 322.72,34.6642857 L324,36.9042857 C325.52,35.9042857 327.56,34.9042857 329.8,34.9042857 C332.96,34.9042857 333.76,37.2642857 333.8,39.7042857 C325.48,40.6242857 321.88,42.7042857 321.88,47.0242857 C321.88,50.5442857 324.32,52.5442857 327.56,52.5442857 Z M328.48,49.8242857 C326.6,49.8242857 325.12,48.9842857 325.12,46.8242857 C325.12,44.3042857 327.24,42.8242857 333.8,42.0642857 L333.8,47.3442857 C331.92,48.9842857 330.36,49.8242857 328.48,49.8242857 Z M350.88,52.0642857 L350.88,35.3042857 L357.36,35.3042857 L357.36,32.6242857 L341.04,32.6242857 L341.04,35.3042857 L347.56,35.3042857 L347.56,52.0642857 L350.88,52.0642857 Z M366.16,52.5442857 C368.6,52.5442857 370.72,51.3042857 372.56,49.7442857 L372.68,49.7442857 L373,52.0642857 L375.72,52.0642857 L375.72,40.1042857 C375.72,35.3042857 373.68,32.1442857 368.96,32.1442857 C365.84,32.1442857 363.12,33.4642857 361.32,34.6642857 L362.6,36.9042857 C364.12,35.9042857 366.16,34.9042857 368.4,34.9042857 C371.56,34.9042857 372.36,37.2642857 372.4,39.7042857 C364.08,40.6242857 360.48,42.7042857 360.48,47.0242857 C360.48,50.5442857 362.92,52.5442857 366.16,52.5442857 Z M367.08,49.8242857 C365.2,49.8242857 363.72,48.9842857 363.72,46.8242857 C363.72,44.3042857 365.84,42.8242857 372.4,42.0642857 L372.4,47.3442857 C370.52,48.9842857 368.96,49.8242857 367.08,49.8242857 Z M380.8,52.4242857 C383.64,52.4242857 385.4,50.3042857 385.96,46.0642857 C386.4,42.5042857 386.8,38.9042857 387.24,35.3042857 L393.24,35.3042857 L393.24,52.0642857 L396.56,52.0642857 L396.56,32.6242857 L384.6,32.6242857 C384.12,36.8242857 383.64,41.0242857 383.12,45.2242857 C382.76,47.9842857 381.88,49.2242857 380.52,49.2242857 C380.16,49.2242857 379.88,49.1442857 379.64,49.0642857 L379,52.1042857 C379.56,52.3442857 380.04,52.4242857 380.8,52.4242857 Z M410.68,52.5442857 C415.44,52.5442857 419.72,48.8242857 419.72,42.3842857 C419.72,35.8642857 415.44,32.1442857 410.68,32.1442857 C405.92,32.1442857 401.68,35.8642857 401.68,42.3842857 C401.68,48.8242857 405.92,52.5442857 410.68,52.5442857 Z M410.68,49.7842857 C407.36,49.7842857 405.12,46.8242857 405.12,42.3842857 C405.12,37.9042857 407.36,34.9042857 410.68,34.9042857 C414.04,34.9042857 416.28,37.9042857 416.28,42.3842857 C416.28,46.8242857 414.04,49.7842857 410.68,49.7842857 Z M428.12,52.0642857 L428.12,35.3042857 L436.92,35.3042857 L436.92,32.6242857 L424.8,32.6242857 L424.8,52.0642857 L428.12,52.0642857 Z" id="Рабочийкаталог" fill="#333333" fill-rule="nonzero"></path>
            <g id="folder">
                <path d="M39.1952339,1.36598157 L43.8047661,6.63401843 C44.5643185,7.50207827 45.6616226,8 46.8150729,8 L92,8 C94.209139,8 96,9.790861 96,12 L96,70 L96,70 L4,70 C1.790861,70 -3.72626139e-15,68.209139 0,66 L0,4 C-2.705415e-16,1.790861 1.790861,2.18216909e-15 4,0 L36.1849271,0 C37.3383774,-1.10006381e-15 38.4356815,0.497921729 39.1952339,1.36598157 Z" id="Path" fill="#FCA65C"></path>
                <path d="M58.1952339,14.3659816 L62.8047661,19.6340184 C63.5643185,20.5020783 64.6616226,21 65.8150729,21 L96.1538462,21 C98.3629852,21 100.153846,22.790861 100.153846,25 L100.153846,70 L100.153846,70 L12,70 C9.790861,70 8,68.209139 8,66 L8,17 C8,14.790861 9.790861,13 12,13 L55.1849271,13 C56.3383774,13 57.4356815,13.4979217 58.1952339,14.3659816 Z" id="Path" fill="#73B0DE" transform="translate(54.076923, 41.500000) scale(-1, 1) translate(-54.076923, -41.500000) "></path>
                <path d="M9,58 L9,70 L4,70 L4.19964034,69.9951047 C6.31603153,69.8910789 8,68.1421954 8,66 L8,66 L8,58 L9,58 Z" id="Combined-Shape" fill="#73B0DE"></path>
                <g id="Path" transform="translate(37.000000, 29.000000)">
                    <use fill="#61A2D3" fill-rule="evenodd" xlink:href="#path-1"></use>
                    <use fill="black" fill-opacity="1" filter="url(#filter-2)" xlink:href="#path-1"></use>
                </g>
            </g>
        </g>
        <g id="trees-icon-label" transform="translate(604.000000, 297.500000)">
            <path d="M146.76,52.5442857 C147.6,52.5442857 148.2,52.4242857 148.68,52.1842857 L148.24,49.7042857 C147.92,49.7842857 147.76,49.7842857 147.56,49.7842857 C147.04,49.7842857 146.6,49.4242857 146.6,48.3842857 L146.6,23.5842857 L143.28,23.5842857 L143.28,48.1442857 C143.28,50.9442857 144.28,52.5442857 146.76,52.5442857 Z M155.16,28.6242857 C156.44,28.6242857 157.36,27.7842857 157.36,26.4642857 C157.36,25.1842857 156.44,24.3042857 155.16,24.3042857 C153.88,24.3042857 152.96,25.1842857 152.96,26.4642857 C152.96,27.7842857 153.88,28.6242857 155.16,28.6242857 Z M156.8,52.0642857 L156.8,32.6242857 L153.48,32.6242857 L153.48,52.0642857 L156.8,52.0642857 Z M171.96,52.5442857 C176.4,52.5442857 180.4,48.6642857 180.4,42.0242857 C180.4,36.0242857 177.68,32.1442857 172.68,32.1442857 C170.52,32.1442857 168.36,33.3042857 166.56,34.8242857 L166.68,31.3442857 L166.68,23.5842857 L163.36,23.5842857 L163.36,52.0642857 L166,52.0642857 L166.32,50.0642857 L166.44,50.0642857 C168.16,51.6242857 170.16,52.5442857 171.96,52.5442857 Z M171.4,49.7442857 C170.12,49.7442857 168.36,49.2242857 166.68,47.7442857 L166.68,37.5842857 C168.52,35.8242857 170.2,34.9442857 171.84,34.9442857 C175.48,34.9442857 176.96,37.7842857 176.96,42.0642857 C176.96,46.8642857 174.6,49.7442857 171.4,49.7442857 Z M190.6,52.5442857 C195.2,52.5442857 197.72,49.9042857 197.72,46.7442857 C197.72,43.2242857 194.8,41.9042857 191.76,40.8242857 C189.32,39.9842857 187.64,39.2642857 187.64,37.5042857 C187.64,36.0642857 188.72,34.7042857 191.2,34.7042857 C192.92,34.7042857 194.32,35.2642857 195.68,36.2642857 L197.2,34.3442857 C195.68,33.0642857 193.6,32.1442857 191.16,32.1442857 C186.92,32.1442857 184.44,34.5442857 184.44,37.6642857 C184.44,40.8642857 187.24,42.2642857 190.16,43.3042857 L190.598839,43.4651509 C192.6384,44.2214413 194.52,45.077619 194.52,46.9442857 C194.52,48.6242857 193.28,49.9442857 190.72,49.9442857 C188.32,49.9442857 186.56,49.2242857 184.88,47.8242857 L183.36,49.7442857 C185.16,51.5042857 187.76,52.5442857 190.6,52.5442857 Z" id="libs" fill="#333333" fill-rule="nonzero"></path>
            <g id="folder">
                <path d="M39.1952339,1.36598157 L43.8047661,6.63401843 C44.5643185,7.50207827 45.6616226,8 46.8150729,8 L92,8 C94.209139,8 96,9.790861 96,12 L96,70 L96,70 L4,70 C1.790861,70 -3.72626139e-15,68.209139 0,66 L0,4 C-2.705415e-16,1.790861 1.790861,2.18216909e-15 4,0 L36.1849271,0 C37.3383774,-1.10006381e-15 38.4356815,0.497921729 39.1952339,1.36598157 Z" id="Path" fill="#FCA65C"></path>
                <path d="M58.1952339,14.3659816 L62.8047661,19.6340184 C63.5643185,20.5020783 64.6616226,21 65.8150729,21 L96.1538462,21 C98.3629852,21 100.153846,22.790861 100.153846,25 L100.153846,70 L100.153846,70 L12,70 C9.790861,70 8,68.209139 8,66 L8,17 C8,14.790861 9.790861,13 12,13 L55.1849271,13 C56.3383774,13 57.4356815,13.4979217 58.1952339,14.3659816 Z" id="Path" fill="#73B0DE" transform="translate(54.076923, 41.500000) scale(-1, 1) translate(-54.076923, -41.500000) "></path>
                <path d="M9,58 L9,70 L4,70 L4.19964034,69.9951047 C6.31603153,69.8910789 8,68.1421954 8,66 L8,66 L8,58 L9,58 Z" id="Combined-Shape" fill="#73B0DE"></path>
            </g>
        </g>
        <g id="trees-icon-label" transform="translate(766.000000, 428.500000)">
            <path d="M151.36,52.0642857 L158.24,32.6242857 L154.96,32.6242857 L151.32,43.6242857 C150.72,45.5442857 150.08,47.5042857 149.52,49.3842857 L149.36,49.3842857 C148.76,47.5042857 148.16,45.5442857 147.56,43.6242857 L143.92,32.6242857 L140.48,32.6242857 L147.48,52.0642857 L151.36,52.0642857 Z M163.68,28.6242857 C164.96,28.6242857 165.88,27.7842857 165.88,26.4642857 C165.88,25.1842857 164.96,24.3042857 163.68,24.3042857 C162.4,24.3042857 161.48,25.1842857 161.48,26.4642857 C161.48,27.7842857 162.4,28.6242857 163.68,28.6242857 Z M165.32,52.0642857 L165.32,32.6242857 L162,32.6242857 L162,52.0642857 L165.32,52.0642857 Z M175.2,52.0642857 L175.2,37.9842857 C177.12,36.0242857 178.52,35.0242857 180.48,35.0242857 C183.04,35.0242857 184.16,36.5442857 184.16,40.1842857 L184.16,52.0642857 L187.48,52.0642857 L187.48,39.7442857 C187.48,34.7842857 185.64,32.1442857 181.52,32.1442857 C178.84,32.1442857 176.84,33.5842857 175,35.4242857 L174.88,35.4242857 L174.6,32.6242857 L171.88,32.6242857 L171.88,52.0642857 L175.2,52.0642857 Z M199.88,52.5442857 C201.2,52.5442857 202.52,52.1842857 203.56,51.7042857 L202.88,49.3442857 C202.08,49.7042857 201.36,49.8242857 200.64,49.8242857 C198.44,49.8242857 197.64,48.4642857 197.64,46.1042857 L197.64,35.3042857 L202.92,35.3042857 L202.92,32.6242857 L197.64,32.6242857 L197.64,26.3842857 L194.88,26.3842857 L194.48,32.6242857 L191.44,32.8242857 L191.44,35.3042857 L194.32,35.3042857 L194.32,46.0242857 C194.32,49.9042857 195.72,52.5442857 199.88,52.5442857 Z M211.8,52.5442857 C214.24,52.5442857 216.36,51.3042857 218.2,49.7442857 L218.32,49.7442857 L218.64,52.0642857 L221.36,52.0642857 L221.36,40.1042857 C221.36,35.3042857 219.32,32.1442857 214.6,32.1442857 C211.48,32.1442857 208.76,33.4642857 206.96,34.6642857 L208.24,36.9042857 C209.76,35.9042857 211.8,34.9042857 214.04,34.9042857 C217.2,34.9042857 218,37.2642857 218.04,39.7042857 C209.72,40.6242857 206.12,42.7042857 206.12,47.0242857 C206.12,50.5442857 208.56,52.5442857 211.8,52.5442857 Z M212.72,49.8242857 C210.84,49.8242857 209.36,48.9842857 209.36,46.8242857 C209.36,44.3042857 211.48,42.8242857 218.04,42.0642857 L218.04,47.3442857 C216.16,48.9842857 214.6,49.8242857 212.72,49.8242857 Z M234.04,61.0242857 C240.08,61.0242857 243.88,57.9042857 243.88,54.2642857 C243.88,51.0642857 241.6,49.6242857 237.08,49.6242857 L233.32,49.6242857 C230.72,49.6242857 229.92,48.7442857 229.92,47.5442857 C229.92,46.4642857 230.44,45.8242857 231.16,45.2242857 C232.04,45.6642857 233.08,45.9042857 234.04,45.9042857 C238,45.9042857 241.16,43.3042857 241.16,39.1442857 C241.16,37.5042857 240.52,36.0642857 239.6,35.1842857 L243.56,35.1842857 L243.56,32.6242857 L236.8,32.6242857 C236.08,32.3442857 235.12,32.1442857 234.04,32.1442857 C230.08,32.1442857 226.72,34.8242857 226.72,39.0642857 C226.72,41.3842857 227.96,43.2642857 229.24,44.3042857 L229.24,44.4642857 C228.24,45.1442857 227.12,46.4242857 227.12,48.0642857 C227.12,49.5842857 227.88,50.6242857 228.84,51.2242857 L228.84,51.3842857 C227.08,52.5842857 226,54.1442857 226,55.7842857 C226,59.1442857 229.28,61.0242857 234.04,61.0242857 Z M234.04,43.6642857 C231.8,43.6642857 229.92,41.9042857 229.92,39.0642857 C229.92,36.2242857 231.76,34.5442857 234.04,34.5442857 C236.32,34.5442857 238.16,36.2642857 238.16,39.0642857 C238.16,41.9042857 236.28,43.6642857 234.04,43.6642857 Z M234.52,58.7042857 C231,58.7042857 228.88,57.4242857 228.88,55.3442857 C228.88,54.2242857 229.48,53.0642857 230.88,52.0642857 C231.72,52.3042857 232.64,52.3842857 233.4,52.3842857 L236.72,52.3842857 C239.28,52.3842857 240.64,52.9842857 240.64,54.7842857 C240.64,56.7842857 238.2,58.7042857 234.52,58.7042857 Z M255.52,52.5442857 C258.2,52.5442857 260.28,51.7442857 261.96,50.5442857 L260.8,48.4242857 C259.44,49.3442857 257.8,49.8642857 255.92,49.8642857 C252.24,49.8642857 249.8,47.2242857 249.52,43.2242857 L262.6,43.2242857 C262.72,42.5842857 262.76,41.9842857 262.76,41.2642857 C262.76,35.6642857 259.92,32.1442857 254.96,32.1442857 C250.52,32.1442857 246.24,36.0242857 246.24,42.3442857 C246.24,48.7842857 250.32,52.5442857 255.52,52.5442857 Z M259.8,40.6642857 L249.52,40.6642857 C249.92,36.9442857 252.32,34.7842857 255.04,34.7842857 C258,34.7842857 259.8,36.8242857 259.8,40.6642857 Z M272.6,52.5442857 C277.2,52.5442857 279.72,49.9042857 279.72,46.7442857 C279.72,43.2242857 276.8,41.9042857 273.76,40.8242857 C271.32,39.9842857 269.64,39.2642857 269.64,37.5042857 C269.64,36.0642857 270.72,34.7042857 273.2,34.7042857 C274.92,34.7042857 276.32,35.2642857 277.68,36.2642857 L279.2,34.3442857 C277.68,33.0642857 275.6,32.1442857 273.16,32.1442857 C268.92,32.1442857 266.44,34.5442857 266.44,37.6642857 C266.44,40.8642857 269.24,42.2642857 272.16,43.3042857 L272.598839,43.4651509 C274.6384,44.2214413 276.52,45.077619 276.52,46.9442857 C276.52,48.6242857 275.28,49.9442857 272.72,49.9442857 C270.32,49.9442857 268.56,49.2242857 266.88,47.8242857 L265.36,49.7442857 C267.16,51.5042857 269.76,52.5442857 272.6,52.5442857 Z M300.52,57.1042857 L300.52,54.9042857 L281.48,54.9042857 L281.48,57.1042857 L300.52,57.1042857 Z M307.56,52.0642857 L307.56,46.9442857 L311.16,42.7442857 L316.84,52.0642857 L320.44,52.0642857 L313.12,40.4642857 L319.6,32.6242857 L315.88,32.6242857 L307.68,42.7842857 L307.56,42.7842857 L307.56,23.5842857 L304.28,23.5842857 L304.28,52.0642857 L307.56,52.0642857 Z M325.76,28.6242857 C327.04,28.6242857 327.96,27.7842857 327.96,26.4642857 C327.96,25.1842857 327.04,24.3042857 325.76,24.3042857 C324.48,24.3042857 323.56,25.1842857 323.56,26.4642857 C323.56,27.7842857 324.48,28.6242857 325.76,28.6242857 Z M327.4,52.0642857 L327.4,32.6242857 L324.08,32.6242857 L324.08,52.0642857 L327.4,52.0642857 Z M340.08,52.5442857 C341.4,52.5442857 342.72,52.1842857 343.76,51.7042857 L343.08,49.3442857 C342.28,49.7042857 341.56,49.8242857 340.84,49.8242857 C338.64,49.8242857 337.84,48.4642857 337.84,46.1042857 L337.84,35.3042857 L343.12,35.3042857 L343.12,32.6242857 L337.84,32.6242857 L337.84,26.3842857 L335.08,26.3842857 L334.68,32.6242857 L331.64,32.8242857 L331.64,35.3042857 L334.52,35.3042857 L334.52,46.0242857 C334.52,49.9042857 335.92,52.5442857 340.08,52.5442857 Z" id="vintages_kit" fill="#333333" fill-rule="nonzero"></path>
            <g id="folder">
                <path d="M39.1952339,1.36598157 L43.8047661,6.63401843 C44.5643185,7.50207827 45.6616226,8 46.8150729,8 L92,8 C94.209139,8 96,9.790861 96,12 L96,70 L96,70 L4,70 C1.790861,70 -3.72626139e-15,68.209139 0,66 L0,4 C-2.705415e-16,1.790861 1.790861,2.18216909e-15 4,0 L36.1849271,0 C37.3383774,-1.10006381e-15 38.4356815,0.497921729 39.1952339,1.36598157 Z" id="Path" fill="#FCA65C"></path>
                <path d="M58.1952339,14.3659816 L62.8047661,19.6340184 C63.5643185,20.5020783 64.6616226,21 65.8150729,21 L96.1538462,21 C98.3629852,21 100.153846,22.790861 100.153846,25 L100.153846,70 L100.153846,70 L12,70 C9.790861,70 8,68.209139 8,66 L8,17 C8,14.790861 9.790861,13 12,13 L55.1849271,13 C56.3383774,13 57.4356815,13.4979217 58.1952339,14.3659816 Z" id="Path" fill="#73B0DE" transform="translate(54.076923, 41.500000) scale(-1, 1) translate(-54.076923, -41.500000) "></path>
                <path d="M9,58 L9,70 L4,70 L4.19964034,69.9951047 C6.31603153,69.8910789 8,68.1421954 8,66 L8,66 L8,58 L9,58 Z" id="Combined-Shape" fill="#73B0DE"></path>
            </g>
        </g>
        <g id="trees-icon-label" transform="translate(928.000000, 559.000000)">
            <path d="M130.76,52.48 C131.6,52.48 132.2,52.36 132.68,52.12 L132.24,49.64 C131.92,49.72 131.76,49.72 131.56,49.72 C131.04,49.72 130.6,49.36 130.6,48.32 L130.6,23.52 L127.28,23.52 L127.28,48.08 C127.28,50.88 128.28,52.48 130.76,52.48 Z M145.04,52.48 C149.8,52.48 154.08,48.76 154.08,42.32 C154.08,35.8 149.8,32.08 145.04,32.08 C140.28,32.08 136.04,35.8 136.04,42.32 C136.04,48.76 140.28,52.48 145.04,52.48 Z M145.04,49.72 C141.72,49.72 139.48,46.76 139.48,42.32 C139.48,37.84 141.72,34.84 145.04,34.84 C148.4,34.84 150.64,37.84 150.64,42.32 C150.64,46.76 148.4,49.72 145.04,49.72 Z M165.72,60.96 C171.76,60.96 175.56,57.84 175.56,54.2 C175.56,51 173.28,49.56 168.76,49.56 L165,49.56 C162.4,49.56 161.6,48.68 161.6,47.48 C161.6,46.4 162.12,45.76 162.84,45.16 C163.72,45.6 164.76,45.84 165.72,45.84 C169.68,45.84 172.84,43.24 172.84,39.08 C172.84,37.44 172.2,36 171.28,35.12 L175.24,35.12 L175.24,32.56 L168.48,32.56 C167.76,32.28 166.8,32.08 165.72,32.08 C161.76,32.08 158.4,34.76 158.4,39 C158.4,41.32 159.64,43.2 160.92,44.24 L160.92,44.4 C159.92,45.08 158.8,46.36 158.8,48 C158.8,49.52 159.56,50.56 160.52,51.16 L160.52,51.32 C158.76,52.52 157.68,54.08 157.68,55.72 C157.68,59.08 160.96,60.96 165.72,60.96 Z M165.72,43.6 C163.48,43.6 161.6,41.84 161.6,39 C161.6,36.16 163.44,34.48 165.72,34.48 C168,34.48 169.84,36.2 169.84,39 C169.84,41.84 167.96,43.6 165.72,43.6 Z M166.2,58.64 C162.68,58.64 160.56,57.36 160.56,55.28 C160.56,54.16 161.16,53 162.56,52 C163.4,52.24 164.32,52.32 165.08,52.32 L168.4,52.32 C170.96,52.32 172.32,52.92 172.32,54.72 C172.32,56.72 169.88,58.64 166.2,58.64 Z M181.04,28.56 C182.32,28.56 183.24,27.72 183.24,26.4 C183.24,25.12 182.32,24.24 181.04,24.24 C179.76,24.24 178.84,25.12 178.84,26.4 C178.84,27.72 179.76,28.56 181.04,28.56 Z M182.68,52 L182.68,32.56 L179.36,32.56 L179.36,52 L182.68,52 Z M192.56,52 L192.56,37.92 C194.48,35.96 195.88,34.96 197.84,34.96 C200.4,34.96 201.52,36.48 201.52,40.12 L201.52,52 L204.84,52 L204.84,39.68 C204.84,34.72 203,32.08 198.88,32.08 C196.2,32.08 194.2,33.52 192.36,35.36 L192.24,35.36 L191.96,32.56 L189.24,32.56 L189.24,52 L192.56,52 Z M218.68,52.48 C223.44,52.48 227.72,48.76 227.72,42.32 C227.72,35.8 223.44,32.08 218.68,32.08 C213.92,32.08 209.68,35.8 209.68,42.32 C209.68,48.76 213.92,52.48 218.68,52.48 Z M218.68,49.72 C215.36,49.72 213.12,46.76 213.12,42.32 C213.12,37.84 215.36,34.84 218.68,34.84 C222.04,34.84 224.28,37.84 224.28,42.32 C224.28,46.76 222.04,49.72 218.68,49.72 Z M236.12,52 L236.12,37.92 C237.92,35.92 239.52,34.96 240.96,34.96 C243.44,34.96 244.56,36.48 244.56,40.12 L244.56,52 L247.88,52 L247.88,37.92 C249.68,35.92 251.24,34.96 252.76,34.96 C255.2,34.96 256.36,36.48 256.36,40.12 L256.36,52 L259.68,52 L259.68,39.68 C259.68,34.72 257.76,32.08 253.76,32.08 C251.4,32.08 249.36,33.6 247.36,35.76 C246.56,33.48 244.96,32.08 241.96,32.08 C239.64,32.08 237.64,33.52 235.92,35.36 L235.8,35.36 L235.52,32.56 L232.8,32.56 L232.8,52 L236.12,52 Z M282.2,57.04 L282.2,54.84 L263.16,54.84 L263.16,57.04 L282.2,57.04 Z M294.04,52 L300.92,32.56 L297.64,32.56 L294,43.56 C293.4,45.48 292.76,47.44 292.2,49.32 L292.04,49.32 C291.44,47.44 290.84,45.48 290.24,43.56 L286.6,32.56 L283.16,32.56 L290.16,52 L294.04,52 Z M306.36,28.56 C307.64,28.56 308.56,27.72 308.56,26.4 C308.56,25.12 307.64,24.24 306.36,24.24 C305.08,24.24 304.16,25.12 304.16,26.4 C304.16,27.72 305.08,28.56 306.36,28.56 Z M308,52 L308,32.56 L304.68,32.56 L304.68,52 L308,52 Z M317.88,52 L317.88,37.92 C319.8,35.96 321.2,34.96 323.16,34.96 C325.72,34.96 326.84,36.48 326.84,40.12 L326.84,52 L330.16,52 L330.16,39.68 C330.16,34.72 328.32,32.08 324.2,32.08 C321.52,32.08 319.52,33.52 317.68,35.36 L317.56,35.36 L317.28,32.56 L314.56,32.56 L314.56,52 L317.88,52 Z M342.56,52.48 C343.88,52.48 345.2,52.12 346.24,51.64 L345.56,49.28 C344.76,49.64 344.04,49.76 343.32,49.76 C341.12,49.76 340.32,48.4 340.32,46.04 L340.32,35.24 L345.6,35.24 L345.6,32.56 L340.32,32.56 L340.32,26.32 L337.56,26.32 L337.16,32.56 L334.12,32.76 L334.12,35.24 L337,35.24 L337,45.96 C337,49.84 338.4,52.48 342.56,52.48 Z M354.48,52.48 C356.92,52.48 359.04,51.24 360.88,49.68 L361,49.68 L361.32,52 L364.04,52 L364.04,40.04 C364.04,35.24 362,32.08 357.28,32.08 C354.16,32.08 351.44,33.4 349.64,34.6 L350.92,36.84 C352.44,35.84 354.48,34.84 356.72,34.84 C359.88,34.84 360.68,37.2 360.72,39.64 C352.4,40.56 348.8,42.64 348.8,46.96 C348.8,50.48 351.24,52.48 354.48,52.48 Z M355.4,49.76 C353.52,49.76 352.04,48.92 352.04,46.76 C352.04,44.24 354.16,42.76 360.72,42 L360.72,47.28 C358.84,48.92 357.28,49.76 355.4,49.76 Z M376.72,60.96 C382.76,60.96 386.56,57.84 386.56,54.2 C386.56,51 384.28,49.56 379.76,49.56 L376,49.56 C373.4,49.56 372.6,48.68 372.6,47.48 C372.6,46.4 373.12,45.76 373.84,45.16 C374.72,45.6 375.76,45.84 376.72,45.84 C380.68,45.84 383.84,43.24 383.84,39.08 C383.84,37.44 383.2,36 382.28,35.12 L386.24,35.12 L386.24,32.56 L379.48,32.56 C378.76,32.28 377.8,32.08 376.72,32.08 C372.76,32.08 369.4,34.76 369.4,39 C369.4,41.32 370.64,43.2 371.92,44.24 L371.92,44.4 C370.92,45.08 369.8,46.36 369.8,48 C369.8,49.52 370.56,50.56 371.52,51.16 L371.52,51.32 C369.76,52.52 368.68,54.08 368.68,55.72 C368.68,59.08 371.96,60.96 376.72,60.96 Z M376.72,43.6 C374.48,43.6 372.6,41.84 372.6,39 C372.6,36.16 374.44,34.48 376.72,34.48 C379,34.48 380.84,36.2 380.84,39 C380.84,41.84 378.96,43.6 376.72,43.6 Z M377.2,58.64 C373.68,58.64 371.56,57.36 371.56,55.28 C371.56,54.16 372.16,53 373.56,52 C374.4,52.24 375.32,52.32 376.08,52.32 L379.4,52.32 C381.96,52.32 383.32,52.92 383.32,54.72 C383.32,56.72 380.88,58.64 377.2,58.64 Z M398.2,52.48 C400.88,52.48 402.96,51.68 404.64,50.48 L403.48,48.36 C402.12,49.28 400.48,49.8 398.6,49.8 C394.92,49.8 392.48,47.16 392.2,43.16 L405.28,43.16 C405.4,42.52 405.44,41.92 405.44,41.2 C405.44,35.6 402.6,32.08 397.64,32.08 C393.2,32.08 388.92,35.96 388.92,42.28 C388.92,48.72 393,52.48 398.2,52.48 Z M402.48,40.6 L392.2,40.6 C392.6,36.88 395,34.72 397.72,34.72 C400.68,34.72 402.48,36.76 402.48,40.6 Z M415.28,52.48 C419.88,52.48 422.4,49.84 422.4,46.68 C422.4,43.16 419.48,41.84 416.44,40.76 C414,39.92 412.32,39.2 412.32,37.44 C412.32,36 413.4,34.64 415.88,34.64 C417.6,34.64 419,35.2 420.36,36.2 L421.88,34.28 C420.36,33 418.28,32.08 415.84,32.08 C411.6,32.08 409.12,34.48 409.12,37.6 C409.12,40.8 411.92,42.2 414.84,43.24 L415.278839,43.4008652 C417.3184,44.1571556 419.2,45.0133333 419.2,46.88 C419.2,48.56 417.96,49.88 415.4,49.88 C413,49.88 411.24,49.16 409.56,47.76 L408.04,49.68 C409.84,51.44 412.44,52.48 415.28,52.48 Z M443.2,57.04 L443.2,54.84 L424.16,54.84 L424.16,57.04 L443.2,57.04 Z M450.24,52 L450.24,46.88 L453.84,42.68 L459.52,52 L463.12,52 L455.8,40.4 L462.28,32.56 L458.56,32.56 L450.36,42.72 L450.24,42.72 L450.24,23.52 L446.96,23.52 L446.96,52 L450.24,52 Z M468.44,28.56 C469.72,28.56 470.64,27.72 470.64,26.4 C470.64,25.12 469.72,24.24 468.44,24.24 C467.16,24.24 466.24,25.12 466.24,26.4 C466.24,27.72 467.16,28.56 468.44,28.56 Z M470.08,52 L470.08,32.56 L466.76,32.56 L466.76,52 L470.08,52 Z M482.76,52.48 C484.08,52.48 485.4,52.12 486.44,51.64 L485.76,49.28 C484.96,49.64 484.24,49.76 483.52,49.76 C481.32,49.76 480.52,48.4 480.52,46.04 L480.52,35.24 L485.8,35.24 L485.8,32.56 L480.52,32.56 L480.52,26.32 L477.76,26.32 L477.36,32.56 L474.32,32.76 L474.32,35.24 L477.2,35.24 L477.2,45.96 C477.2,49.84 478.6,52.48 482.76,52.48 Z M491.92,52.48 C493.24,52.48 494.32,51.44 494.32,49.96 C494.32,48.44 493.24,47.4 491.92,47.4 C490.6,47.4 489.52,48.44 489.52,49.96 C489.52,51.44 490.6,52.48 491.92,52.48 Z M503.68,52.48 C504.52,52.48 505.12,52.36 505.6,52.12 L505.16,49.64 C504.84,49.72 504.68,49.72 504.48,49.72 C503.96,49.72 503.52,49.36 503.52,48.32 L503.52,23.52 L500.2,23.52 L500.2,48.08 C500.2,50.88 501.2,52.48 503.68,52.48 Z M516.96,60.96 C523,60.96 526.8,57.84 526.8,54.2 C526.8,51 524.52,49.56 520,49.56 L516.24,49.56 C513.64,49.56 512.84,48.68 512.84,47.48 C512.84,46.4 513.36,45.76 514.08,45.16 C514.96,45.6 516,45.84 516.96,45.84 C520.92,45.84 524.08,43.24 524.08,39.08 C524.08,37.44 523.44,36 522.52,35.12 L526.48,35.12 L526.48,32.56 L519.72,32.56 C519,32.28 518.04,32.08 516.96,32.08 C513,32.08 509.64,34.76 509.64,39 C509.64,41.32 510.88,43.2 512.16,44.24 L512.16,44.4 C511.16,45.08 510.04,46.36 510.04,48 C510.04,49.52 510.8,50.56 511.76,51.16 L511.76,51.32 C510,52.52 508.92,54.08 508.92,55.72 C508.92,59.08 512.2,60.96 516.96,60.96 Z M516.96,43.6 C514.72,43.6 512.84,41.84 512.84,39 C512.84,36.16 514.68,34.48 516.96,34.48 C519.24,34.48 521.08,36.2 521.08,39 C521.08,41.84 519.2,43.6 516.96,43.6 Z M517.44,58.64 C513.92,58.64 511.8,57.36 511.8,55.28 C511.8,54.16 512.4,53 513.8,52 C514.64,52.24 515.56,52.32 516.32,52.32 L519.64,52.32 C522.2,52.32 523.56,52.92 523.56,54.72 C523.56,56.72 521.12,58.64 517.44,58.64 Z M533.92,60.2 L533.92,53.64 L533.84,50.24 C535.6,51.64 537.44,52.48 539.2,52.48 C543.64,52.48 547.64,48.6 547.64,42 C547.64,35.96 544.92,32.08 539.92,32.08 C537.68,32.08 535.48,33.32 533.72,34.8 L533.6,34.8 L533.32,32.56 L530.6,32.56 L530.6,60.2 L533.92,60.2 Z M538.64,49.68 C537.36,49.68 535.68,49.16 533.92,47.68 L533.92,37.52 C535.8,35.76 537.44,34.88 539.08,34.88 C542.72,34.88 544.2,37.72 544.2,42 C544.2,46.8 541.84,49.68 538.64,49.68 Z" id="loginom_vintages_kit.lgp" fill="#333333" fill-rule="nonzero"></path>
            <g id="Group">
                <path d="M64,0 C66.209139,-4.05812251e-16 68,1.790861 68,4 L68,66 C68,68.209139 66.209139,70 64,70 L60,70 C62.209139,70 64,68.209139 64,66 L64,66 L64,4 C64,1.790861 62.209139,-4.05812251e-16 60,0 L60,0 L64,0 Z" id="Combined-Shape" fill="#FCA65C"></path>
                <path d="M72,0 C74.209139,-4.05812251e-16 76,1.790861 76,4 L76,66 C76,68.209139 74.209139,70 72,70 L68,70 C70.209139,70 72,68.209139 72,66 L72,66 L72,4 C72,1.790861 70.209139,-4.05812251e-16 68,0 L68,0 L72,0 Z" id="Combined-Shape" fill="#FCA65C"></path>
                <path d="M80,0 C82.209139,-4.05812251e-16 84,1.790861 84,4 L84,66 C84,68.209139 82.209139,70 80,70 L76,70 C78.209139,70 80,68.209139 80,66 L80,66 L80,4 C80,1.790861 78.209139,-4.05812251e-16 76,0 L76,0 L80,0 Z" id="Combined-Shape" fill="#FCA65C"></path>
                <rect id="Rectangle" fill="#73B0DE" x="0" y="0" width="60" height="70" rx="4"></rect>
                <g transform="translate(12.000000, 22.000000)" fill="#F9F9F9" id="Rectangle">
                    <rect x="0" y="0" width="36" height="2" rx="1"></rect>
                    <rect x="0" y="6" width="36" height="2" rx="1"></rect>
                    <rect x="0" y="12" width="36" height="2" rx="1"></rect>
                    <rect x="0" y="18" width="36" height="2" rx="1"></rect>
                    <rect x="0" y="24" width="25" height="2" rx="1"></rect>
                </g>
            </g>
        </g>
        <g id="trees-icon-label" transform="translate(766.000000, 714.500000)">
            <path d="M148.36,52.5442857 C152.96,52.5442857 155.48,49.9042857 155.48,46.7442857 C155.48,43.2242857 152.56,41.9042857 149.52,40.8242857 C147.08,39.9842857 145.4,39.2642857 145.4,37.5042857 C145.4,36.0642857 146.48,34.7042857 148.96,34.7042857 C150.68,34.7042857 152.08,35.2642857 153.44,36.2642857 L154.96,34.3442857 C153.44,33.0642857 151.36,32.1442857 148.92,32.1442857 C144.68,32.1442857 142.2,34.5442857 142.2,37.6642857 C142.2,40.8642857 145,42.2642857 147.92,43.3042857 L148.358839,43.4651509 C150.3984,44.2214413 152.28,45.077619 152.28,46.9442857 C152.28,48.6242857 151.04,49.9442857 148.48,49.9442857 C146.08,49.9442857 144.32,49.2242857 142.64,47.8242857 L141.12,49.7442857 C142.92,51.5042857 145.52,52.5442857 148.36,52.5442857 Z M161.72,28.6242857 C163,28.6242857 163.92,27.7842857 163.92,26.4642857 C163.92,25.1842857 163,24.3042857 161.72,24.3042857 C160.44,24.3042857 159.52,25.1842857 159.52,26.4642857 C159.52,27.7842857 160.44,28.6242857 161.72,28.6242857 Z M163.36,52.0642857 L163.36,32.6242857 L160.04,32.6242857 L160.04,52.0642857 L163.36,52.0642857 Z M173.4,52.5442857 C174.24,52.5442857 174.84,52.4242857 175.32,52.1842857 L174.88,49.7042857 C174.56,49.7842857 174.4,49.7842857 174.2,49.7842857 C173.68,49.7842857 173.24,49.4242857 173.24,48.3842857 L173.24,23.5842857 L169.92,23.5842857 L169.92,48.1442857 C169.92,50.9442857 170.92,52.5442857 173.4,52.5442857 Z M188.2,52.0642857 L195.08,32.6242857 L191.8,32.6242857 L188.16,43.6242857 C187.56,45.5442857 186.92,47.5042857 186.36,49.3842857 L186.2,49.3842857 C185.6,47.5042857 185,45.5442857 184.4,43.6242857 L180.76,32.6242857 L177.32,32.6242857 L184.32,52.0642857 L188.2,52.0642857 Z M206.68,52.5442857 C209.36,52.5442857 211.44,51.7442857 213.12,50.5442857 L211.96,48.4242857 C210.6,49.3442857 208.96,49.8642857 207.08,49.8642857 C203.4,49.8642857 200.96,47.2242857 200.68,43.2242857 L213.76,43.2242857 C213.88,42.5842857 213.92,41.9842857 213.92,41.2642857 C213.92,35.6642857 211.08,32.1442857 206.12,32.1442857 C201.68,32.1442857 197.4,36.0242857 197.4,42.3442857 C197.4,48.7842857 201.48,52.5442857 206.68,52.5442857 Z M210.96,40.6642857 L200.68,40.6642857 C201.08,36.9442857 203.48,34.7842857 206.2,34.7842857 C209.16,34.7842857 210.96,36.8242857 210.96,40.6642857 Z M222,52.0642857 L222,39.5842857 C223.32,36.3042857 225.28,35.1442857 226.92,35.1442857 C227.68,35.1442857 228.12,35.2242857 228.68,35.3842857 L229.4,32.5442857 C228.8,32.2642857 228.2,32.1442857 227.32,32.1442857 C225.16,32.1442857 223.16,33.7042857 221.8,36.1442857 L221.68,36.1442857 L221.4,32.6242857 L218.68,32.6242857 L218.68,52.0642857 L222,52.0642857 Z M248.84,57.1042857 L248.84,54.9042857 L229.8,54.9042857 L229.8,57.1042857 L248.84,57.1042857 Z M255.88,52.0642857 L255.88,46.9442857 L259.48,42.7442857 L265.16,52.0642857 L268.76,52.0642857 L261.44,40.4642857 L267.92,32.6242857 L264.2,32.6242857 L256,42.7842857 L255.88,42.7842857 L255.88,23.5842857 L252.6,23.5842857 L252.6,52.0642857 L255.88,52.0642857 Z M274.08,28.6242857 C275.36,28.6242857 276.28,27.7842857 276.28,26.4642857 C276.28,25.1842857 275.36,24.3042857 274.08,24.3042857 C272.8,24.3042857 271.88,25.1842857 271.88,26.4642857 C271.88,27.7842857 272.8,28.6242857 274.08,28.6242857 Z M275.72,52.0642857 L275.72,32.6242857 L272.4,32.6242857 L272.4,52.0642857 L275.72,52.0642857 Z M288.4,52.5442857 C289.72,52.5442857 291.04,52.1842857 292.08,51.7042857 L291.4,49.3442857 C290.6,49.7042857 289.88,49.8242857 289.16,49.8242857 C286.96,49.8242857 286.16,48.4642857 286.16,46.1042857 L286.16,35.3042857 L291.44,35.3042857 L291.44,32.6242857 L286.16,32.6242857 L286.16,26.3842857 L283.4,26.3842857 L283,32.6242857 L279.96,32.8242857 L279.96,35.3042857 L282.84,35.3042857 L282.84,46.0242857 C282.84,49.9042857 284.24,52.5442857 288.4,52.5442857 Z" id="silver_kit" fill="#333333" fill-rule="nonzero"></path>
            <g id="folder">
                <path d="M39.1952339,1.36598157 L43.8047661,6.63401843 C44.5643185,7.50207827 45.6616226,8 46.8150729,8 L92,8 C94.209139,8 96,9.790861 96,12 L96,70 L96,70 L4,70 C1.790861,70 -3.72626139e-15,68.209139 0,66 L0,4 C-2.705415e-16,1.790861 1.790861,2.18216909e-15 4,0 L36.1849271,0 C37.3383774,-1.10006381e-15 38.4356815,0.497921729 39.1952339,1.36598157 Z" id="Path" fill="#FCA65C"></path>
                <path d="M58.1952339,14.3659816 L62.8047661,19.6340184 C63.5643185,20.5020783 64.6616226,21 65.8150729,21 L96.1538462,21 C98.3629852,21 100.153846,22.790861 100.153846,25 L100.153846,70 L100.153846,70 L12,70 C9.790861,70 8,68.209139 8,66 L8,17 C8,14.790861 9.790861,13 12,13 L55.1849271,13 C56.3383774,13 57.4356815,13.4979217 58.1952339,14.3659816 Z" id="Path" fill="#73B0DE" transform="translate(54.076923, 41.500000) scale(-1, 1) translate(-54.076923, -41.500000) "></path>
                <path d="M9,58 L9,70 L4,70 L4.19964034,69.9951047 C6.31603153,69.8910789 8,68.1421954 8,66 L8,66 L8,58 L9,58 Z" id="Combined-Shape" fill="#73B0DE"></path>
            </g>
        </g>
        <g id="trees-icon-label" transform="translate(928.000000, 845.000000)">
            <path d="M130.76,52.48 C131.6,52.48 132.2,52.36 132.68,52.12 L132.24,49.64 C131.92,49.72 131.76,49.72 131.56,49.72 C131.04,49.72 130.6,49.36 130.6,48.32 L130.6,23.52 L127.28,23.52 L127.28,48.08 C127.28,50.88 128.28,52.48 130.76,52.48 Z M145.04,52.48 C149.8,52.48 154.08,48.76 154.08,42.32 C154.08,35.8 149.8,32.08 145.04,32.08 C140.28,32.08 136.04,35.8 136.04,42.32 C136.04,48.76 140.28,52.48 145.04,52.48 Z M145.04,49.72 C141.72,49.72 139.48,46.76 139.48,42.32 C139.48,37.84 141.72,34.84 145.04,34.84 C148.4,34.84 150.64,37.84 150.64,42.32 C150.64,46.76 148.4,49.72 145.04,49.72 Z M165.72,60.96 C171.76,60.96 175.56,57.84 175.56,54.2 C175.56,51 173.28,49.56 168.76,49.56 L165,49.56 C162.4,49.56 161.6,48.68 161.6,47.48 C161.6,46.4 162.12,45.76 162.84,45.16 C163.72,45.6 164.76,45.84 165.72,45.84 C169.68,45.84 172.84,43.24 172.84,39.08 C172.84,37.44 172.2,36 171.28,35.12 L175.24,35.12 L175.24,32.56 L168.48,32.56 C167.76,32.28 166.8,32.08 165.72,32.08 C161.76,32.08 158.4,34.76 158.4,39 C158.4,41.32 159.64,43.2 160.92,44.24 L160.92,44.4 C159.92,45.08 158.8,46.36 158.8,48 C158.8,49.52 159.56,50.56 160.52,51.16 L160.52,51.32 C158.76,52.52 157.68,54.08 157.68,55.72 C157.68,59.08 160.96,60.96 165.72,60.96 Z M165.72,43.6 C163.48,43.6 161.6,41.84 161.6,39 C161.6,36.16 163.44,34.48 165.72,34.48 C168,34.48 169.84,36.2 169.84,39 C169.84,41.84 167.96,43.6 165.72,43.6 Z M166.2,58.64 C162.68,58.64 160.56,57.36 160.56,55.28 C160.56,54.16 161.16,53 162.56,52 C163.4,52.24 164.32,52.32 165.08,52.32 L168.4,52.32 C170.96,52.32 172.32,52.92 172.32,54.72 C172.32,56.72 169.88,58.64 166.2,58.64 Z M181.04,28.56 C182.32,28.56 183.24,27.72 183.24,26.4 C183.24,25.12 182.32,24.24 181.04,24.24 C179.76,24.24 178.84,25.12 178.84,26.4 C178.84,27.72 179.76,28.56 181.04,28.56 Z M182.68,52 L182.68,32.56 L179.36,32.56 L179.36,52 L182.68,52 Z M192.56,52 L192.56,37.92 C194.48,35.96 195.88,34.96 197.84,34.96 C200.4,34.96 201.52,36.48 201.52,40.12 L201.52,52 L204.84,52 L204.84,39.68 C204.84,34.72 203,32.08 198.88,32.08 C196.2,32.08 194.2,33.52 192.36,35.36 L192.24,35.36 L191.96,32.56 L189.24,32.56 L189.24,52 L192.56,52 Z M218.68,52.48 C223.44,52.48 227.72,48.76 227.72,42.32 C227.72,35.8 223.44,32.08 218.68,32.08 C213.92,32.08 209.68,35.8 209.68,42.32 C209.68,48.76 213.92,52.48 218.68,52.48 Z M218.68,49.72 C215.36,49.72 213.12,46.76 213.12,42.32 C213.12,37.84 215.36,34.84 218.68,34.84 C222.04,34.84 224.28,37.84 224.28,42.32 C224.28,46.76 222.04,49.72 218.68,49.72 Z M236.12,52 L236.12,37.92 C237.92,35.92 239.52,34.96 240.96,34.96 C243.44,34.96 244.56,36.48 244.56,40.12 L244.56,52 L247.88,52 L247.88,37.92 C249.68,35.92 251.24,34.96 252.76,34.96 C255.2,34.96 256.36,36.48 256.36,40.12 L256.36,52 L259.68,52 L259.68,39.68 C259.68,34.72 257.76,32.08 253.76,32.08 C251.4,32.08 249.36,33.6 247.36,35.76 C246.56,33.48 244.96,32.08 241.96,32.08 C239.64,32.08 237.64,33.52 235.92,35.36 L235.8,35.36 L235.52,32.56 L232.8,32.56 L232.8,52 L236.12,52 Z M282.2,57.04 L282.2,54.84 L263.16,54.84 L263.16,57.04 L282.2,57.04 Z M291.04,52.48 C295.64,52.48 298.16,49.84 298.16,46.68 C298.16,43.16 295.24,41.84 292.2,40.76 C289.76,39.92 288.08,39.2 288.08,37.44 C288.08,36 289.16,34.64 291.64,34.64 C293.36,34.64 294.76,35.2 296.12,36.2 L297.64,34.28 C296.12,33 294.04,32.08 291.6,32.08 C287.36,32.08 284.88,34.48 284.88,37.6 C284.88,40.8 287.68,42.2 290.6,43.24 L291.038839,43.4008652 C293.0784,44.1571556 294.96,45.0133333 294.96,46.88 C294.96,48.56 293.72,49.88 291.16,49.88 C288.76,49.88 287,49.16 285.32,47.76 L283.8,49.68 C285.6,51.44 288.2,52.48 291.04,52.48 Z M304.4,28.56 C305.68,28.56 306.6,27.72 306.6,26.4 C306.6,25.12 305.68,24.24 304.4,24.24 C303.12,24.24 302.2,25.12 302.2,26.4 C302.2,27.72 303.12,28.56 304.4,28.56 Z M306.04,52 L306.04,32.56 L302.72,32.56 L302.72,52 L306.04,52 Z M316.08,52.48 C316.92,52.48 317.52,52.36 318,52.12 L317.56,49.64 C317.24,49.72 317.08,49.72 316.88,49.72 C316.36,49.72 315.92,49.36 315.92,48.32 L315.92,23.52 L312.6,23.52 L312.6,48.08 C312.6,50.88 313.6,52.48 316.08,52.48 Z M330.88,52 L337.76,32.56 L334.48,32.56 L330.84,43.56 C330.24,45.48 329.6,47.44 329.04,49.32 L328.88,49.32 C328.28,47.44 327.68,45.48 327.08,43.56 L323.44,32.56 L320,32.56 L327,52 L330.88,52 Z M349.36,52.48 C352.04,52.48 354.12,51.68 355.8,50.48 L354.64,48.36 C353.28,49.28 351.64,49.8 349.76,49.8 C346.08,49.8 343.64,47.16 343.36,43.16 L356.44,43.16 C356.56,42.52 356.6,41.92 356.6,41.2 C356.6,35.6 353.76,32.08 348.8,32.08 C344.36,32.08 340.08,35.96 340.08,42.28 C340.08,48.72 344.16,52.48 349.36,52.48 Z M353.64,40.6 L343.36,40.6 C343.76,36.88 346.16,34.72 348.88,34.72 C351.84,34.72 353.64,36.76 353.64,40.6 Z M364.68,52 L364.68,39.52 C366,36.24 367.96,35.08 369.6,35.08 C370.36,35.08 370.8,35.16 371.36,35.32 L372.08,32.48 C371.48,32.2 370.88,32.08 370,32.08 C367.84,32.08 365.84,33.64 364.48,36.08 L364.36,36.08 L364.08,32.56 L361.36,32.56 L361.36,52 L364.68,52 Z M391.52,57.04 L391.52,54.84 L372.48,54.84 L372.48,57.04 L391.52,57.04 Z M398.56,52 L398.56,46.88 L402.16,42.68 L407.84,52 L411.44,52 L404.12,40.4 L410.6,32.56 L406.88,32.56 L398.68,42.72 L398.56,42.72 L398.56,23.52 L395.28,23.52 L395.28,52 L398.56,52 Z M416.76,28.56 C418.04,28.56 418.96,27.72 418.96,26.4 C418.96,25.12 418.04,24.24 416.76,24.24 C415.48,24.24 414.56,25.12 414.56,26.4 C414.56,27.72 415.48,28.56 416.76,28.56 Z M418.4,52 L418.4,32.56 L415.08,32.56 L415.08,52 L418.4,52 Z M431.08,52.48 C432.4,52.48 433.72,52.12 434.76,51.64 L434.08,49.28 C433.28,49.64 432.56,49.76 431.84,49.76 C429.64,49.76 428.84,48.4 428.84,46.04 L428.84,35.24 L434.12,35.24 L434.12,32.56 L428.84,32.56 L428.84,26.32 L426.08,26.32 L425.68,32.56 L422.64,32.76 L422.64,35.24 L425.52,35.24 L425.52,45.96 C425.52,49.84 426.92,52.48 431.08,52.48 Z M440.24,52.48 C441.56,52.48 442.64,51.44 442.64,49.96 C442.64,48.44 441.56,47.4 440.24,47.4 C438.92,47.4 437.84,48.44 437.84,49.96 C437.84,51.44 438.92,52.48 440.24,52.48 Z M452,52.48 C452.84,52.48 453.44,52.36 453.92,52.12 L453.48,49.64 C453.16,49.72 453,49.72 452.8,49.72 C452.28,49.72 451.84,49.36 451.84,48.32 L451.84,23.52 L448.52,23.52 L448.52,48.08 C448.52,50.88 449.52,52.48 452,52.48 Z M465.28,60.96 C471.32,60.96 475.12,57.84 475.12,54.2 C475.12,51 472.84,49.56 468.32,49.56 L464.56,49.56 C461.96,49.56 461.16,48.68 461.16,47.48 C461.16,46.4 461.68,45.76 462.4,45.16 C463.28,45.6 464.32,45.84 465.28,45.84 C469.24,45.84 472.4,43.24 472.4,39.08 C472.4,37.44 471.76,36 470.84,35.12 L474.8,35.12 L474.8,32.56 L468.04,32.56 C467.32,32.28 466.36,32.08 465.28,32.08 C461.32,32.08 457.96,34.76 457.96,39 C457.96,41.32 459.2,43.2 460.48,44.24 L460.48,44.4 C459.48,45.08 458.36,46.36 458.36,48 C458.36,49.52 459.12,50.56 460.08,51.16 L460.08,51.32 C458.32,52.52 457.24,54.08 457.24,55.72 C457.24,59.08 460.52,60.96 465.28,60.96 Z M465.28,43.6 C463.04,43.6 461.16,41.84 461.16,39 C461.16,36.16 463,34.48 465.28,34.48 C467.56,34.48 469.4,36.2 469.4,39 C469.4,41.84 467.52,43.6 465.28,43.6 Z M465.76,58.64 C462.24,58.64 460.12,57.36 460.12,55.28 C460.12,54.16 460.72,53 462.12,52 C462.96,52.24 463.88,52.32 464.64,52.32 L467.96,52.32 C470.52,52.32 471.88,52.92 471.88,54.72 C471.88,56.72 469.44,58.64 465.76,58.64 Z M482.24,60.2 L482.24,53.64 L482.16,50.24 C483.92,51.64 485.76,52.48 487.52,52.48 C491.96,52.48 495.96,48.6 495.96,42 C495.96,35.96 493.24,32.08 488.24,32.08 C486,32.08 483.8,33.32 482.04,34.8 L481.92,34.8 L481.64,32.56 L478.92,32.56 L478.92,60.2 L482.24,60.2 Z M486.96,49.68 C485.68,49.68 484,49.16 482.24,47.68 L482.24,37.52 C484.12,35.76 485.76,34.88 487.4,34.88 C491.04,34.88 492.52,37.72 492.52,42 C492.52,46.8 490.16,49.68 486.96,49.68 Z" id="loginom_silver_kit.lgp" fill="#333333" fill-rule="nonzero"></path>
            <g id="Group">
                <path d="M64,0 C66.209139,-4.05812251e-16 68,1.790861 68,4 L68,66 C68,68.209139 66.209139,70 64,70 L60,70 C62.209139,70 64,68.209139 64,66 L64,66 L64,4 C64,1.790861 62.209139,-4.05812251e-16 60,0 L60,0 L64,0 Z" id="Combined-Shape" fill="#FCA65C"></path>
                <path d="M72,0 C74.209139,-4.05812251e-16 76,1.790861 76,4 L76,66 C76,68.209139 74.209139,70 72,70 L68,70 C70.209139,70 72,68.209139 72,66 L72,66 L72,4 C72,1.790861 70.209139,-4.05812251e-16 68,0 L68,0 L72,0 Z" id="Combined-Shape" fill="#FCA65C"></path>
                <path d="M80,0 C82.209139,-4.05812251e-16 84,1.790861 84,4 L84,66 C84,68.209139 82.209139,70 80,70 L76,70 C78.209139,70 80,68.209139 80,66 L80,66 L80,4 C80,1.790861 78.209139,-4.05812251e-16 76,0 L76,0 L80,0 Z" id="Combined-Shape" fill="#FCA65C"></path>
                <rect id="Rectangle" fill="#73B0DE" x="0" y="0" width="60" height="70" rx="4"></rect>
                <g transform="translate(12.000000, 22.000000)" fill="#F9F9F9" id="Rectangle">
                    <rect x="0" y="0" width="36" height="2" rx="1"></rect>
                    <rect x="0" y="6" width="36" height="2" rx="1"></rect>
                    <rect x="0" y="12" width="36" height="2" rx="1"></rect>
                    <rect x="0" y="18" width="36" height="2" rx="1"></rect>
                    <rect x="0" y="24" width="25" height="2" rx="1"></rect>
                </g>
            </g>
        </g>
        <g id="Arrow/Gray-Circle/L-Shape-Copy" transform="translate(532.000000, 296.500000) rotate(-180.000000) translate(-532.000000, -296.500000) translate(482.000000, 247.000000)">
            <path d="M16,10 L90,10 L90,83" id="Path-4" stroke="#9A9FAF" stroke-width="4" stroke-dasharray="6"></path>
            <g id="Start-point" transform="translate(80.000000, 79.000000)" filter="url(#filter-3)">
                <g transform="translate(10.000000, 10.000000) rotate(90.000000) translate(-10.000000, -10.000000) ">
                    <path d="M10,0 C15.5228475,0 20,4.4771525 20,10 C20,15.5228475 15.5228475,20 10,20 C4.4771525,20 0,15.5228475 0,10 C0,4.4771525 4.4771525,0 10,0 Z M10,6 C7.790861,6 6,7.790861 6,10 C6,12.209139 7.790861,14 10,14 C12.209139,14 14,12.209139 14,10 C14,7.790861 12.209139,6 10,6 Z" id="Shape" fill="#F7931E"></path>
                </g>
            </g>
            <g id="Start-point" filter="url(#filter-4)">
                <g transform="translate(10.000000, 10.000000) rotate(90.000000) translate(-10.000000, -10.000000) ">
                    <path d="M10,0 C15.5228475,0 20,4.4771525 20,10 C20,15.5228475 15.5228475,20 10,20 C4.4771525,20 0,15.5228475 0,10 C0,4.4771525 4.4771525,0 10,0 Z M10,6 C7.790861,6 6,7.790861 6,10 C6,12.209139 7.790861,14 10,14 C12.209139,14 14,12.209139 14,10 C14,7.790861 12.209139,6 10,6 Z" id="Shape" fill="#F7931E"></path>
                </g>
            </g>
        </g>
        <g id="Arrow/Gray-Circle/L-Shape-Copy" transform="translate(694.000000, 427.500000) rotate(-180.000000) translate(-694.000000, -427.500000) translate(644.000000, 378.000000)">
            <path d="M16,10 L90,10 L90,83" id="Path-4" stroke="#9A9FAF" stroke-width="4" stroke-dasharray="6"></path>
            <g id="Start-point" transform="translate(80.000000, 79.000000)" filter="url(#filter-5)">
                <g transform="translate(10.000000, 10.000000) rotate(90.000000) translate(-10.000000, -10.000000) ">
                    <path d="M10,0 C15.5228475,0 20,4.4771525 20,10 C20,15.5228475 15.5228475,20 10,20 C4.4771525,20 0,15.5228475 0,10 C0,4.4771525 4.4771525,0 10,0 Z M10,6 C7.790861,6 6,7.790861 6,10 C6,12.209139 7.790861,14 10,14 C12.209139,14 14,12.209139 14,10 C14,7.790861 12.209139,6 10,6 Z" id="Shape" fill="#F7931E"></path>
                </g>
            </g>
            <g id="Start-point" filter="url(#filter-6)">
                <g transform="translate(10.000000, 10.000000) rotate(90.000000) translate(-10.000000, -10.000000) ">
                    <path d="M10,0 C15.5228475,0 20,4.4771525 20,10 C20,15.5228475 15.5228475,20 10,20 C4.4771525,20 0,15.5228475 0,10 C0,4.4771525 4.4771525,0 10,0 Z M10,6 C7.790861,6 6,7.790861 6,10 C6,12.209139 7.790861,14 10,14 C12.209139,14 14,12.209139 14,10 C14,7.790861 12.209139,6 10,6 Z" id="Shape" fill="#F7931E"></path>
                </g>
            </g>
        </g>
        <g id="Arrow/Gray-Circle/L-Shape-Copy" transform="translate(856.000000, 842.000000) rotate(-180.000000) translate(-856.000000, -842.000000) translate(806.000000, 795.000000)">
            <path d="M16,10 L90,10 L90,78" id="Path-4" stroke="#9A9FAF" stroke-width="4" stroke-dasharray="6"></path>
            <g id="Start-point" transform="translate(80.000000, 74.000000)" filter="url(#filter-7)">
                <g transform="translate(10.000000, 10.000000) rotate(90.000000) translate(-10.000000, -10.000000) ">
                    <path d="M10,0 C15.5228475,0 20,4.4771525 20,10 C20,15.5228475 15.5228475,20 10,20 C4.4771525,20 0,15.5228475 0,10 C0,4.4771525 4.4771525,0 10,0 Z M10,6 C7.790861,6 6,7.790861 6,10 C6,12.209139 7.790861,14 10,14 C12.209139,14 14,12.209139 14,10 C14,7.790861 12.209139,6 10,6 Z" id="Shape" fill="#F7931E"></path>
                </g>
            </g>
            <g id="Start-point" filter="url(#filter-8)">
                <g transform="translate(10.000000, 10.000000) rotate(90.000000) translate(-10.000000, -10.000000) ">
                    <path d="M10,0 C15.5228475,0 20,4.4771525 20,10 C20,15.5228475 15.5228475,20 10,20 C4.4771525,20 0,15.5228475 0,10 C0,4.4771525 4.4771525,0 10,0 Z M10,6 C7.790861,6 6,7.790861 6,10 C6,12.209139 7.790861,14 10,14 C12.209139,14 14,12.209139 14,10 C14,7.790861 12.209139,6 10,6 Z" id="Shape" fill="#F7931E"></path>
                </g>
            </g>
        </g>
        <g id="Arrow/Gray-Circle/L-Shape-Copy" transform="translate(856.000000, 556.000000) rotate(-180.000000) translate(-856.000000, -556.000000) translate(806.000000, 509.000000)">
            <path d="M16,10 L90,10 L90,78" id="Path-4" stroke="#9A9FAF" stroke-width="4" stroke-dasharray="6"></path>
            <g id="Start-point" transform="translate(80.000000, 74.000000)" filter="url(#filter-9)">
                <g transform="translate(10.000000, 10.000000) rotate(90.000000) translate(-10.000000, -10.000000) ">
                    <path d="M10,0 C15.5228475,0 20,4.4771525 20,10 C20,15.5228475 15.5228475,20 10,20 C4.4771525,20 0,15.5228475 0,10 C0,4.4771525 4.4771525,0 10,0 Z M10,6 C7.790861,6 6,7.790861 6,10 C6,12.209139 7.790861,14 10,14 C12.209139,14 14,12.209139 14,10 C14,7.790861 12.209139,6 10,6 Z" id="Shape" fill="#F7931E"></path>
                </g>
            </g>
            <g id="Start-point" filter="url(#filter-10)">
                <g transform="translate(10.000000, 10.000000) rotate(90.000000) translate(-10.000000, -10.000000) ">
                    <path d="M10,0 C15.5228475,0 20,4.4771525 20,10 C20,15.5228475 15.5228475,20 10,20 C4.4771525,20 0,15.5228475 0,10 C0,4.4771525 4.4771525,0 10,0 Z M10,6 C7.790861,6 6,7.790861 6,10 C6,12.209139 7.790861,14 10,14 C12.209139,14 14,12.209139 14,10 C14,7.790861 12.209139,6 10,6 Z" id="Shape" fill="#F7931E"></path>
                </g>
            </g>
        </g>
        <g id="Arrow/Gray-Circle/L-Shape-Copy-2" transform="translate(699.000000, 617.000000) rotate(-180.000000) translate(-699.000000, -617.000000) translate(654.000000, 475.000000)">
            <path d="M16,10 L90,10 L90,284" id="Path-4" stroke="#9A9FAF" stroke-width="4" stroke-dasharray="6"></path>
            <g id="Start-point" filter="url(#filter-11)">
                <g transform="translate(10.000000, 10.000000) rotate(90.000000) translate(-10.000000, -10.000000) ">
                    <path d="M10,0 C15.5228475,0 20,4.4771525 20,10 C20,15.5228475 15.5228475,20 10,20 C4.4771525,20 0,15.5228475 0,10 C0,4.4771525 4.4771525,0 10,0 Z M10,6 C7.790861,6 6,7.790861 6,10 C6,12.209139 7.790861,14 10,14 C12.209139,14 14,12.209139 14,10 C14,7.790861 12.209139,6 10,6 Z" id="Shape" fill="#F7931E"></path>
                </g>
            </g>
        </g>
    </g>
</svg>